# xmcd CD database file
#
# Track frame offsets:
#	150
#	14907
#	25941
#	37716
#	51597
#	59955
#	73141
#	99748
#	114560
#	128957
#
# Disc length: 1872 seconds
#
# Revision: 0
# Processed by: cddbd v1.5PL3 Copyright (c) Steve Scherf et al.
# Submitted via: CDex 1.50beta10
#
DISCID=9a074e0a
DTITLE=Al Copley - Jump On It
DYEAR=2002
DGENRE=Blues
TTITLE0=Last Thing I Needed
TTITLE1=Hoy Hoy Hoy
TTITLE2=The Big Ten Inch Record
TTITLE3=Louie Louie
TTITLE4=Great Balls Of Fire
TTITLE5=Stranger In My Hometown
TTITLE6=Please Send Me Someone To Love
TTITLE7=Someday
TTITLE8=How Sweet It Is
TTITLE9=I Ain't Gonna Do It
EXTD=YEAR: 2002
EXTT0=
EXTT1=
EXTT2=
EXTT3=
EXTT4=
EXTT5=
EXTT6=
EXTT7=
EXTT8=
EXTT9=
PLAYORDER=
